<svg width="100" height="100" fill="none" xmlns="http://www.w3.org/2000/svg"><path fill-rule="evenodd" clip-rule="evenodd" d="M50 99c27.062 0 49-21.938 49-49S77.062 1 50 1 1 22.938 1 50s21.938 49 49 49z" fill="#fff" stroke="#E8E8E8"/><path fill-rule="evenodd" clip-rule="evenodd" d="M77.713 50.045l-6.737-7.72a1.156 1.156 0 00-.87-.396h-5.61V37.16A1.16 1.16 0 0063.337 36H39.442a1.16 1.16 0 00-1.157 1.161v1.567H27.157A1.16 1.16 0 0026 39.89a1.16 1.16 0 001.157 1.162h11.128v15.053h-6.698a1.16 1.16 0 00-1.157 1.162 1.16 1.16 0 001.157 1.16h6.698v1.181a1.16 1.16 0 001.157 1.161h2.415c.509 1.86 2.207 3.232 4.22 3.232s3.712-1.371 4.22-3.232h15.439c.509 1.86 2.207 3.232 4.22 3.232s3.712-1.371 4.22-3.232h2.667A1.16 1.16 0 0078 59.607V50.81c0-.281-.102-.553-.287-.765zM46.077 61.678a2.069 2.069 0 01-2.062-2.07c0-1.142.925-2.071 2.062-2.071 1.138 0 2.063.928 2.063 2.07s-.925 2.07-2.063 2.07zm0-6.464c2.013 0 3.712 1.372 4.22 3.232h11.884V38.322H40.599v20.124h1.258c.508-1.86 2.207-3.232 4.22-3.232zm23.88 6.464a2.069 2.069 0 01-2.063-2.07c0-1.142.925-2.071 2.062-2.071 1.138 0 2.063.928 2.063 2.07s-.925 2.07-2.063 2.07zm4.22-3.232h1.509v-7.2l-6.106-6.995h-5.085v14.195h1.24c.51-1.86 2.208-3.232 4.221-3.232s3.712 1.372 4.22 3.232z" fill="#86ADEF"/><path d="M27.816 56h-.632C26.53 56 26 56.672 26 57.5s.53 1.5 1.184 1.5h.632C28.47 59 29 58.328 29 57.5s-.53-1.5-1.184-1.5zm5.084-9H21.1c-.607 0-1.1.56-1.1 1.25s.493 1.25 1.1 1.25h11.8c.607 0 1.1-.56 1.1-1.25S33.507 47 32.9 47z" fill="#86ADEF"/></svg>