<svg width="100" height="100" fill="none" xmlns="http://www.w3.org/2000/svg"><path fill-rule="evenodd" clip-rule="evenodd" d="M50 99c27.062 0 49-21.938 49-49S77.062 1 50 1 1 22.938 1 50s21.938 49 49 49z" fill="#fff" stroke="#E8E8E8"/><path fill-rule="evenodd" clip-rule="evenodd" d="M40.67 26h25.292C67.637 26 69 27.38 69 29.078v36.138c0 1.697-1.363 3.078-3.038 3.078h-2.596v3.51c0 1.21-.972 2.196-2.168 2.196h-27.03C32.973 74 32 73.015 32 71.804V33.903c0-1.211.972-2.197 2.168-2.197h3.465v-2.628c0-1.697 1.362-3.078 3.037-3.078zm-6.482 45.784h26.99V43.618h-7.094c-1.366 0-2.476-1.125-2.476-2.508v-7.188h-17.42v37.862zM53.796 35.49l5.836 5.912h-5.548a.29.29 0 01-.288-.292v-5.62zm9.57 30.587h2.596c.469 0 .85-.386.85-.861V29.078a.857.857 0 00-.85-.861H40.67a.857.857 0 00-.85.86v2.63h12.882c.301 0 .574.123.772.323h.001l9.571 9.697c.203.205.312.478.319.758l.002.025v23.567z" fill="#86ADEF"/></svg>