<svg width="100" height="100" fill="none" xmlns="http://www.w3.org/2000/svg"><path fill-rule="evenodd" clip-rule="evenodd" d="M50 99c27.062 0 49-21.938 49-49S77.062 1 50 1 1 22.938 1 50s21.938 49 49 49z" fill="#fff" stroke="#E8E8E8"/><path fill-rule="evenodd" clip-rule="evenodd" d="M73.83 40.931a3.53 3.53 0 01-.868 3.59l-8.235 8.193a.71.71 0 00-.197.62l1.944 11.57a3.514 3.514 0 01-1.365 3.423 3.37 3.37 0 01-2.012.673 3.375 3.375 0 01-1.6-.406L51.32 63.132a.673.673 0 00-.638 0l-10.178 5.462a3.351 3.351 0 01-3.612-.266 3.513 3.513 0 01-1.365-3.425l1.944-11.57a.71.71 0 00-.197-.619l-8.235-8.194a3.53 3.53 0 01-.867-3.589c.406-1.276 1.467-2.19 2.768-2.382l11.38-1.688a.688.688 0 00.516-.383l5.09-10.526a3.396 3.396 0 016.15 0l5.089 10.526c.1.206.293.35.516.383l11.38 1.688c1.301.193 2.362 1.106 2.769 2.383zM63.77 65.377l-1.944-11.57a3.545 3.545 0 01.986-3.098l8.235-8.194a.693.693 0 00.173-.718.674.674 0 00-.553-.476l-11.38-1.688a3.435 3.435 0 01-2.582-1.916l-5.09-10.526a.666.666 0 00-.615-.39.666.666 0 00-.615.39l-5.089 10.526a3.435 3.435 0 01-2.582 1.916l-11.38 1.688a.673.673 0 00-.554.476.693.693 0 00.174.718l8.234 8.194a3.546 3.546 0 01.987 3.098l-1.944 11.57a.688.688 0 00.273.684.658.658 0 00.722.054l10.178-5.462a3.375 3.375 0 013.192 0l10.179 5.462c.34.183.618.023.722-.053a.688.688 0 00.273-.685z" fill="#86ADEF"/><path d="M66.461 25.276c-.584-.469-1.4-.326-1.825.32l-1.386 2.11c-.425.646-.295 1.55.289 2.018.232.186.5.276.766.276.405 0 .803-.206 1.058-.596l1.387-2.11c.424-.646.295-1.55-.289-2.018zm-27.711 2.43l-1.386-2.11c-.424-.646-1.241-.789-1.825-.32-.584.469-.714 1.372-.29 2.018l1.387 2.11c.256.39.654.596 1.059.596.266 0 .535-.09.766-.276.584-.469.714-1.372.29-2.018zM29.934 55.81c-.23-.615-.988-.952-1.695-.752l-2.31.654c-.706.2-1.092.862-.863 1.477.185.496.712.811 1.279.811.138 0 .278-.019.416-.058l2.31-.654c.706-.2 1.092-.862.863-1.478zM51.5 71c-.828 0-1.5.588-1.5 1.314v2.372c0 .726.672 1.314 1.5 1.314s1.5-.588 1.5-1.314v-2.372c0-.726-.672-1.314-1.5-1.314zm24.57-15.288l-2.31-.654c-.705-.2-1.464.136-1.694.752-.23.616.157 1.278.864 1.478l2.31.654c.137.04.277.058.415.058.567 0 1.094-.315 1.279-.81.23-.616-.157-1.278-.864-1.478z" fill="#86ADEF"/></svg>