<svg width="100" height="100" fill="none" xmlns="http://www.w3.org/2000/svg"><path fill-rule="evenodd" clip-rule="evenodd" d="M50 99c27.062 0 49-21.938 49-49S77.062 1 50 1 1 22.938 1 50s21.938 49 49 49z" fill="#fff" stroke="#E8E8E8"/><path fill-rule="evenodd" clip-rule="evenodd" d="M68.998 33.758v-.025l-.001-.01a1.067 1.067 0 00-.018-.137 1.102 1.102 0 00-.104-.289l-.002-.004-.002-.002a1.056 1.056 0 00-.075-.119l-.016-.02-.006-.008a1.082 1.082 0 00-.095-.108l-9.934-9.721a1.087 1.087 0 00-.11-.093l-.01-.008-.02-.014a1.039 1.039 0 00-.12-.074l-.004-.002-.005-.002a1.182 1.182 0 00-.293-.101 1.16 1.16 0 00-.14-.018h-.019l-.018-.001-.015-.001L57.97 23H33.098C32.49 23 32 23.48 32 24.074v45.98c0 .593.491 1.073 1.098 1.073h16.527v5.799c0 .39.217.75.566.94.35.189.777.178 1.115-.03l4.181-2.567 4.18 2.567a1.117 1.117 0 001.116.03c.35-.19.566-.55.566-.94v-5.799h6.553c.607 0 1.098-.48 1.098-1.074v-36.28l-.002-.015zm-9.931-7.09l6.185 6.053h-6.185v-6.053zm-10.19 28.834c.003.137.129.472.206.677l.001.003c.163.435.347.927.347 1.473 0 .547-.184 1.04-.348 1.476-.077.206-.202.54-.205.677.086.104.383.289.565.401.392.242.835.516 1.156.945.325.433.457.934.573 1.375v.002c.052.193.134.504.204.621.04.008.12.02.272.02.123 0 .26-.007.404-.014h.008a9.2 9.2 0 01.509-.017c.395 0 .714.044 1.004.138.503.164.906.48 1.262.76l.005.004c.194.154.518.409.647.431.13-.022.453-.277.648-.43l.001-.002c.357-.28.76-.598 1.266-.763.29-.094.608-.138 1.004-.138.176 0 .345.009.509.016h.007c.145.008.282.015.405.015.152 0 .232-.012.271-.02.07-.118.153-.43.204-.623.116-.44.249-.942.573-1.375.322-.429.765-.703 1.157-.945l.01-.006c.182-.114.47-.293.555-.395-.003-.137-.129-.472-.206-.677v-.002c-.163-.435-.348-.928-.348-1.474 0-.547.185-1.04.348-1.476l.001-.002c.077-.206.202-.539.205-.675-.085-.102-.373-.282-.556-.395l-.01-.006c-.392-.242-.835-.516-1.156-.945-.324-.433-.457-.934-.573-1.375-.05-.194-.133-.505-.204-.623a1.369 1.369 0 00-.271-.02c-.123 0-.26.007-.405.014h-.007a9.205 9.205 0 01-.51.017c-.395 0-.714-.044-1.003-.138-.506-.165-.91-.483-1.267-.764l-.005-.004c-.198-.155-.523-.412-.648-.428-.115.016-.443.274-.64.43l-.002.002c-.357.28-.762.6-1.267.764-.29.094-.609.138-1.004.138-.176 0-.344-.008-.508-.016h-.01a8.599 8.599 0 00-.403-.014c-.152 0-.233.01-.272.019-.07.117-.152.428-.203.621v.002h-.001c-.116.442-.249.942-.573 1.375-.322.429-.765.703-1.156.945-.182.113-.48.297-.566.4zm10.277 19.482v-9.667a17.534 17.534 0 01-.342-.013 7.625 7.625 0 00-.407-.014c-.195 0-.278.017-.31.028-.13.042-.38.239-.582.398l-.002.001c-.512.404-1.15.906-2.024.906-.874 0-1.512-.502-2.024-.906l-.002-.001c-.201-.159-.452-.356-.582-.399a1.098 1.098 0 00-.31-.028c-.124 0-.261.007-.407.015-.11.005-.225.01-.342.013v9.667l3.083-1.893a1.12 1.12 0 011.168 0l3.082 1.893zm2.195-10.533v4.528h5.456v-34.11h-8.836c-.606 0-1.098-.48-1.098-1.074v-8.647H34.196V68.98h15.43v-4.528c-.327-.433-.464-.948-.58-1.384-.06-.23-.142-.542-.218-.643-.075-.1-.354-.273-.558-.399-.54-.334-1.212-.75-1.48-1.536-.264-.776.011-1.509.232-2.098.1-.267.214-.57.214-.736 0-.166-.114-.468-.214-.736-.221-.59-.496-1.322-.232-2.098.268-.786.94-1.202 1.48-1.536.204-.126.483-.299.558-.4.076-.1.158-.413.219-.642.158-.598.354-1.342 1.027-1.825.535-.383 1.154-.428 1.574-.428.175 0 .343.008.506.016h.008c.146.008.284.015.407.015a1.1 1.1 0 00.31-.028c.13-.042.377-.237.578-.396l.006-.004c.513-.404 1.15-.906 2.024-.906.873 0 1.51.501 2.022.904l.002.002c.202.16.454.357.584.4.032.01.115.028.31.028.124 0 .261-.007.407-.014.165-.008.337-.017.514-.017.42 0 1.04.045 1.575.428.672.483.868 1.227 1.026 1.825.06.23.144.543.219.643.075.1.354.273.558.399.54.334 1.212.75 1.48 1.536.264.776-.011 1.51-.232 2.098-.1.268-.214.57-.214.736 0 .165.114.468.214.736.221.59.496 1.322.232 2.098-.267.786-.94 1.202-1.48 1.536-.205.126-.483.299-.558.4-.075.1-.158.413-.219.642-.115.436-.251.95-.578 1.384z" fill="#86ADEF"/><path d="M38.075 34h13.85c.593 0 1.075-.448 1.075-1s-.482-1-1.075-1h-13.85c-.594 0-1.075.448-1.075 1s.482 1 1.075 1zm24.844 4H39.08c-.597 0-1.081.448-1.081 1s.484 1 1.081 1h23.84c.597 0 1.081-.448 1.081-1s-.484-1-1.081-1zm-5.017 5H38.098C37.49 43 37 43.448 37 44s.491 1 1.098 1h19.804C58.51 45 59 44.552 59 44s-.491-1-1.098-1zM63 43c-.55 0-1 .674-1 1.5s.45 1.5 1 1.5c.551 0 1-.674 1-1.5s-.449-1.5-1-1.5z" fill="#86ADEF"/></svg>